<svg width="138" height="138" viewBox="0 0 138 138" fill="none" xmlns="http://www.w3.org/2000/svg">
<rect width="137.82" height="137.82" rx="40.2228" fill="#1AA060"/>
<path d="M69.3174 31C61.8017 31 54.4548 33.2287 48.2057 37.4042C41.9566 41.5797 37.0861 47.5144 34.21 54.458C31.3338 61.4016 30.5813 69.0422 32.0475 76.4134C33.5138 83.7847 37.1329 90.5557 42.4473 95.8701C47.7617 101.184 54.5327 104.804 61.904 106.27C69.2752 107.736 76.9158 106.984 83.8594 104.107C90.8029 101.231 96.7377 96.3607 100.913 90.1117C105.089 83.8626 107.317 76.5157 107.317 69L86.1353 69C86.1353 72.3263 85.149 75.5778 83.301 78.3435C81.453 81.1092 78.8264 83.2648 75.7533 84.5377C72.6803 85.8107 69.2987 86.1437 66.0364 85.4948C62.774 84.8459 59.7773 83.2441 57.4253 80.8921C55.0733 78.54 53.4715 75.5434 52.8226 72.281C52.1737 69.0187 52.5067 65.6371 53.7796 62.5641C55.0525 59.491 57.2081 56.8644 59.9738 55.0164C62.7395 53.1684 65.9911 52.1821 69.3174 52.1821L69.3174 31Z" fill="white"/>
</svg>
